<mxfile host="Electron" modified="2024-04-03T18:27:39.320Z" agent="Mozilla/5.0 (X11; Linux x86_64) AppleWebKit/537.36 (KHTML, like Gecko) draw.io/24.1.0 Chrome/120.0.6099.109 Electron/28.1.0 Safari/537.36" etag="KR1G9o4kPe8hirbVzjRC" version="24.1.0" type="device">
  <diagram name="Page-1" id="G12LTv3Helk9d1EPD6QO">
    <mxGraphModel dx="1430" dy="860" grid="1" gridSize="10" guides="1" tooltips="1" connect="1" arrows="1" fold="1" page="1" pageScale="1" pageWidth="850" pageHeight="1100" math="0" shadow="0">
      <root>
        <mxCell id="0" />
        <mxCell id="1" parent="0" />
        <mxCell id="ntlYTCJk7bBu3n_6j4_N-11" style="edgeStyle=orthogonalEdgeStyle;rounded=0;orthogonalLoop=1;jettySize=auto;html=1;exitX=0.5;exitY=1;exitDx=0;exitDy=0;entryX=0.5;entryY=0;entryDx=0;entryDy=0;" edge="1" parent="1" source="ntlYTCJk7bBu3n_6j4_N-8" target="ntlYTCJk7bBu3n_6j4_N-10">
          <mxGeometry relative="1" as="geometry" />
        </mxCell>
        <mxCell id="ntlYTCJk7bBu3n_6j4_N-8" value="Firealarm tripped" style="rounded=1;whiteSpace=wrap;html=1;" vertex="1" parent="1">
          <mxGeometry x="200" y="200" width="120" height="40" as="geometry" />
        </mxCell>
        <mxCell id="ntlYTCJk7bBu3n_6j4_N-13" style="edgeStyle=orthogonalEdgeStyle;rounded=0;orthogonalLoop=1;jettySize=auto;html=1;exitX=0.5;exitY=1;exitDx=0;exitDy=0;entryX=0.5;entryY=0;entryDx=0;entryDy=0;" edge="1" parent="1" source="ntlYTCJk7bBu3n_6j4_N-10" target="ntlYTCJk7bBu3n_6j4_N-12">
          <mxGeometry relative="1" as="geometry" />
        </mxCell>
        <mxCell id="ntlYTCJk7bBu3n_6j4_N-10" value="Turn 3D Printer&lt;br&gt;Power Plug&lt;div&gt;OFF&lt;/div&gt;" style="rounded=0;whiteSpace=wrap;html=1;" vertex="1" parent="1">
          <mxGeometry x="200" y="280" width="120" height="60" as="geometry" />
        </mxCell>
        <mxCell id="ntlYTCJk7bBu3n_6j4_N-12" value="Done" style="rounded=1;whiteSpace=wrap;html=1;" vertex="1" parent="1">
          <mxGeometry x="200" y="380" width="120" height="40" as="geometry" />
        </mxCell>
        <mxCell id="ntlYTCJk7bBu3n_6j4_N-17" value="Do nothing, as activating it again&lt;br&gt;&amp;nbsp;could cause the fire to start&amp;nbsp;" style="edgeStyle=orthogonalEdgeStyle;rounded=0;orthogonalLoop=1;jettySize=auto;html=1;exitX=0.5;exitY=1;exitDx=0;exitDy=0;entryX=0.5;entryY=0;entryDx=0;entryDy=0;" edge="1" parent="1" source="ntlYTCJk7bBu3n_6j4_N-14" target="ntlYTCJk7bBu3n_6j4_N-16">
          <mxGeometry relative="1" as="geometry" />
        </mxCell>
        <mxCell id="ntlYTCJk7bBu3n_6j4_N-14" value="Firealarm cleared" style="rounded=1;whiteSpace=wrap;html=1;" vertex="1" parent="1">
          <mxGeometry x="360" y="200" width="120" height="40" as="geometry" />
        </mxCell>
        <mxCell id="ntlYTCJk7bBu3n_6j4_N-16" value="Done" style="rounded=1;whiteSpace=wrap;html=1;" vertex="1" parent="1">
          <mxGeometry x="360" y="380" width="120" height="40" as="geometry" />
        </mxCell>
      </root>
    </mxGraphModel>
  </diagram>
</mxfile>
